<?xml version="1.0" encoding="utf-8"?>
<!-- Generator: Adobe Illustrator 24.2.1, SVG Export Plug-In . SVG Version: 6.00 Build 0)  -->
<svg version="1.1" id="Layer_1" xmlns="http://www.w3.org/2000/svg" xmlns:xlink="http://www.w3.org/1999/xlink" x="0px" y="0px"
	 viewBox="0 0 548.2 76.2" style="enable-background:new 0 0 548.2 76.2;" xml:space="preserve">
<style type="text/css">
	.st0{fill:#5E4DB2;}
	.st1{fill:#251D59;}
</style>
<g>
	<g>
		<path class="st0" d="M29.6,37.6c8.7-0.4,8.7-8.7,8.7-8.7v-7.2c0-4.8-3.9-8.7-8.7-8.7c-4.8,0-8.7,3.9-8.7,8.7v7.2h-7.2
			c-4.8,0-8.7,3.9-8.7,8.7v0c0,4.8,3.9,8.7,8.7,8.7h7.2C20.9,46.2,20.8,37.9,29.6,37.6z"/>
		<path class="st0" d="M31.1,39.1c-8.7,0.4-8.7,8.7-8.7,8.7V55c0,4.8,3.9,8.7,8.7,8.7c4.8,0,8.7-3.9,8.7-8.7v-7.2H47
			c4.8,0,8.7-3.9,8.7-8.7v0c0-4.8-3.9-8.7-8.7-8.7h-7.2C39.7,30.4,39.8,38.7,31.1,39.1z"/>
	</g>
	<g>
		<path class="st1" d="M122,6.8v63.1h-9.4V41.4H79.7v28.4h-9.4V6.8h5.2c2.3,0,4.2,1.9,4.2,4.2v23.7h32.9V10.9c0-2.3,1.9-4.2,4.2-4.2
			H122z"/>
		<path class="st1" d="M168.6,63.5c-1.1,1.2-2.3,2.3-3.6,3.2c-1.4,0.9-2.8,1.6-4.4,2.2c-1.6,0.6-3.2,1-4.8,1.2
			c-1.7,0.3-3.3,0.4-4.9,0.4c-3.1,0-5.9-0.5-8.6-1.6c-2.6-1-4.9-2.6-6.8-4.6c-1.9-2-3.4-4.5-4.5-7.5c-1.1-3-1.6-6.4-1.6-10.3
			c0-3.1,0.5-6,1.5-8.7s2.4-5,4.2-7c1.8-2,4-3.6,6.6-4.7c2.6-1.1,5.5-1.7,8.8-1.7c2.7,0,5.2,0.4,7.5,1.3c2.3,0.9,4.3,2.2,6,3.9
			c1.7,1.7,3,3.8,3.9,6.3c1,2.5,1.4,5.3,1.4,8.5c0,1.3-0.1,2.2-0.4,2.7c-0.3,0.5-0.8,0.7-1.6,0.7h-29.3c0.1,2.7,0.5,5,1.1,7
			c0.7,2,1.6,3.6,2.8,4.9c1.2,1.3,2.6,2.3,4.2,2.9c1.6,0.6,3.5,1,5.5,1c1.9,0,3.6-0.2,4.9-0.7c1.4-0.4,2.6-0.9,3.6-1.4
			c1-0.5,1.9-1,2.6-1.4c0.7-0.4,1.3-0.7,1.8-0.7c0.7,0,1.2,0.3,1.6,0.8L168.6,63.5z M161.5,42.6c0-1.7-0.2-3.3-0.7-4.7
			c-0.5-1.4-1.2-2.7-2.1-3.7c-0.9-1.1-2.1-1.9-3.4-2.5c-1.3-0.6-2.9-0.9-4.7-0.9c-3.6,0-6.4,1-8.5,3.1c-2.1,2.1-3.4,5-3.9,8.7H161.5
			z"/>
		<path class="st1" d="M228.6,5v64.9H220V9.2c0-2.3,1.9-4.2,4.2-4.2H228.6z"/>
		<path class="st1" d="M262.3,62.4c-0.2-0.3-0.3-0.5-0.5-0.6c-0.2-0.1-0.4-0.2-0.7-0.2c-0.2,0-0.5,0.1-0.8,0.3
			c-0.3,0.2-0.6,0.4-1.1,0.7c-0.4,0.3-0.9,0.5-1.5,0.7c-0.6,0.2-1.3,0.3-2,0.3c-1.3,0-2.5-0.4-3.3-1.3c-0.9-0.9-1.3-2.2-1.3-3.9
			v-9.2V32.2h12.7v-6.2v-0.1h-12.7V11.9v-1h-1h-3.4h0c-2.3,0-4.2,1.9-4.2,4.2v10.7h-7v1v3.5c0,0.6,0.2,1.1,0.5,1.4
			c0.3,0.3,0.8,0.5,1.3,0.5h5.2v26.7c0,3.8,1,6.6,2.9,8.7c1.9,2,4.7,3,8.3,3c2.1,0,4.1-0.4,6-1.1c1.9-0.7,3.6-1.7,5-3L262.3,62.4z"
			/>
		<path class="st1" d="M279.3,30.9c1.9-1.9,4-3.4,6.2-4.6c2.3-1.2,4.9-1.8,7.8-1.8c2.5,0,4.6,0.4,6.5,1.2c1.9,0.8,3.4,2,4.7,3.5
			c1.3,1.5,2.2,3.3,2.9,5.3c0.6,2.1,1,4.4,1,6.9v28.4h-8.6V41.4c0-3.2-0.7-5.7-2.2-7.5c-1.5-1.8-3.7-2.7-6.7-2.7
			c-2.2,0-4.3,0.5-6.2,1.6c-1.9,1-3.7,2.5-5.3,4.2v32.8h-8.6V9.2c0-2.3,1.9-4.2,4.2-4.2h4.4V30.9z"/>
		<path class="st1" d="M206.4,28.2c-2.9-2.6-7-3.9-12.2-3.9c-3.2,0-6.3,0.6-9,1.8c-2.7,1.2-4.9,2.9-6.5,5c-1.6,2.1-2.4,4.3-2.4,6.6
			v0.3h8.1v-0.3c0-1.8,0.9-3.4,2.6-4.8c1.8-1.3,4-2,6.7-2c3,0,5.3,0.8,6.8,2.3c1.5,1.5,2.3,3.6,2.3,6.2v3.2h-7.1
			c-6.4,0-11.4,1.3-15,3.9c-3.6,2.6-5.4,6.3-5.4,11c0,3.9,1.4,7.1,4.3,9.6c2.8,2.5,6.5,3.8,10.9,3.8c4.7,0,8.8-1.7,12.2-5l0,0
			c0,2.3,1.9,4.2,4.2,4.2h3.9v-31C210.9,34.4,209.3,30.8,206.4,28.2z M202.9,57.2c-0.9,1.9-2.4,3.4-4.5,4.6
			c-2.1,1.2-4.3,1.8-6.6,1.8c-2.4,0-4.4-0.7-5.9-2c-1.5-1.3-2.3-3.1-2.3-5.4c0-5.2,4.6-7.9,13.7-7.9h5.7V57.2z"/>
		<path class="st1" d="M514.2,31.3c1.9-1.9,4-3.4,6.2-4.6s4.9-1.8,7.8-1.8c2.5,0,4.6,0.4,6.5,1.2c1.9,0.8,3.4,2,4.7,3.5
			c1.3,1.5,2.2,3.3,2.9,5.3c0.6,2.1,1,4.4,1,6.9v28.4h-8.6V41.9c0-3.2-0.7-5.7-2.2-7.5c-1.5-1.8-3.7-2.7-6.7-2.7
			c-2.2,0-4.3,0.5-6.2,1.6c-1.9,1-3.7,2.5-5.3,4.2v32.8h-8.6V9.6c0-2.3,1.9-4.2,4.2-4.2h4.4V31.3z"/>
		<path class="st1" d="M496.7,34c-0.3,0.3-0.5,0.6-0.8,0.8c-0.2,0.2-0.6,0.3-1.1,0.3c-0.5,0-1-0.2-1.5-0.5c-0.5-0.4-1.2-0.8-1.9-1.2
			c-0.8-0.4-1.7-0.8-2.8-1.2c-1.1-0.4-2.5-0.5-4.1-0.5c-2.1,0-4,0.4-5.6,1.1c-1.6,0.8-3,1.8-4,3.3c-1.1,1.4-1.9,3.1-2.4,5.1
			c-0.6,2-0.8,4.3-0.8,6.8c0,2.6,0.3,4.9,0.9,7c0.6,2,1.4,3.8,2.5,5.1c1.1,1.4,2.4,2.4,4,3.2c1.6,0.7,3.3,1.1,5.2,1.1
			c1.8,0,3.4-0.2,4.6-0.7c1.2-0.5,2.2-0.9,3-1.5c0.8-0.5,1.5-1,2-1.5c0.5-0.5,1.1-0.7,1.6-0.7c0.7,0,1.2,0.3,1.6,0.8l2.5,3.2
			c-1,1.3-2.2,2.3-3.5,3.2c-1.3,0.9-2.6,1.6-4.1,2.2c-1.4,0.6-2.9,1-4.5,1.2c-1.6,0.3-3.2,0.4-4.8,0.4c-2.8,0-5.4-0.5-7.8-1.5
			c-2.4-1-4.5-2.5-6.3-4.5c-1.8-2-3.2-4.4-4.2-7.2s-1.5-6.1-1.5-9.7c0-3.3,0.5-6.4,1.4-9.2c0.9-2.8,2.3-5.2,4.1-7.3
			c1.8-2,4-3.6,6.7-4.8c2.6-1.2,5.7-1.7,9.1-1.7c3.2,0,6,0.5,8.4,1.5c2.4,1,4.6,2.5,6.5,4.4L496.7,34z"/>
		<path class="st1" d="M457.3,62.9c-0.2-0.3-0.3-0.5-0.5-0.6c-0.2-0.1-0.4-0.2-0.7-0.2c-0.2,0-0.5,0.1-0.8,0.3
			c-0.3,0.2-0.6,0.4-1.1,0.7c-0.4,0.3-0.9,0.5-1.5,0.7c-0.6,0.2-1.3,0.3-2,0.3c-1.3,0-2.5-0.4-3.3-1.3c-0.9-0.9-1.3-2.2-1.3-3.9
			v-9.2V32.6h12.7v-6.2v-0.1h-12.7V12.4v-1h-1h-3.4h0c-2.3,0-4.2,1.9-4.2,4.2v10.7h-7v1v3.5c0,0.6,0.2,1.1,0.5,1.4
			c0.3,0.3,0.8,0.5,1.3,0.5h5.2v26.7c0,3.8,1,6.6,2.9,8.7s4.7,3,8.3,3c2.1,0,4.1-0.4,6-1.1c1.9-0.7,3.6-1.7,5-3L457.3,62.9z"/>
		<path class="st1" d="M348.9,61.6h1.3c1.5,0,2.7-0.7,3.4-2.2l21-38.6c-0.1,0.8-0.1,1.6-0.2,2.3c0,0.8-0.1,1.5-0.1,2.2v44.9h8.2V7.2
			c0,0-3.9,0-5.6,0s-3.1,0.6-4.3,1.7c-0.5,0.4-0.9,0.9-1.2,1.5l-1.1,1.9v0l-0.2,0.4l-10.9,19.9l-7.6,13.9c-0.8,1.6-1.5,3.3-2.2,5
			h0.1c-0.6-1.7-1.3-3.4-2.2-5l-7.6-13.9L329,12.8l-0.2-0.4v0l-1.1-1.9c-0.3-0.6-0.7-1.1-1.2-1.5c-1.1-1.1-2.5-1.7-4.3-1.7
			s-5.6,0-5.6,0v63.1h8.2V25.4c0-0.7,0-1.4-0.1-2.2c0-0.8-0.1-1.5-0.2-2.3l21,38.6c0.7,1.4,1.9,2.2,3.4,2.2h1.3"/>
		<path class="st1" d="M421.1,28.6c-2.9-2.6-7-3.9-12.2-3.9c-3.2,0-6.3,0.6-9,1.8c-2.7,1.2-4.9,2.9-6.5,5c-1.6,2.1-2.4,4.3-2.4,6.6
			v0.3h8.1v-0.3c0-1.8,0.9-3.4,2.6-4.8c1.8-1.3,4-2,6.7-2c3,0,5.3,0.8,6.8,2.3c1.5,1.5,2.3,3.6,2.3,6.2V43h-7.1
			c-6.4,0-11.4,1.3-15,3.9c-3.6,2.6-5.4,6.3-5.4,11c0,3.9,1.4,7.1,4.3,9.6c2.8,2.5,6.5,3.8,10.9,3.8c4.7,0,8.8-1.7,12.2-5l0,0
			c0,2.3,1.9,4.2,4.2,4.2h3.9v-31C425.6,34.8,424,31.2,421.1,28.6z M417.6,57.7c-0.9,1.9-2.4,3.4-4.5,4.6c-2.1,1.2-4.3,1.8-6.6,1.8
			c-2.4,0-4.4-0.7-5.9-2c-1.5-1.3-2.3-3.1-2.3-5.4c0-5.2,4.6-7.9,13.7-7.9h5.7V57.7z"/>
	</g>
</g>
</svg>
